<?xml version="1.0" standalone="no"?>
<!DOCTYPE svg PUBLIC "-//W3C//DTD SVG 20010904//EN"
 "http://www.w3.org/TR/2001/REC-SVG-20010904/DTD/svg10.dtd">
<svg version="1.0" xmlns="http://www.w3.org/2000/svg"
 width="484.000000pt" height="487.000000pt" viewBox="0 0 484.000000 487.000000"
 preserveAspectRatio="xMidYMid meet">

<g transform="translate(0.000000,487.000000) scale(0.100000,-0.100000)"
fill="#000000" stroke="none">
<path d="M2186 4853 c-3 -3 -25 -7 -48 -10 -24 -2 -59 -6 -78 -9 -19 -2 -44
-6 -55 -7 -11 -1 -26 -6 -33 -10 -7 -5 -19 -6 -27 -3 -8 3 -17 1 -21 -5 -3 -6
-12 -8 -20 -5 -7 3 -16 1 -19 -4 -3 -5 -13 -9 -23 -9 -23 0 -44 -5 -60 -15 -7
-4 -16 -5 -19 -2 -3 3 -12 1 -20 -5 -7 -6 -13 -8 -13 -4 0 4 -7 2 -15 -5 -8
-6 -19 -9 -25 -5 -5 3 -10 2 -10 -3 0 -11 -107 -45 -119 -38 -5 3 -12 -1 -15
-10 -3 -8 -14 -14 -23 -12 -10 2 -22 -2 -28 -9 -5 -7 -20 -15 -33 -18 -13 -2
-38 -13 -56 -24 -18 -12 -36 -18 -39 -14 -4 3 -7 1 -7 -6 0 -7 -4 -10 -9 -6
-5 3 -16 -2 -25 -10 -8 -9 -40 -27 -71 -41 -30 -14 -57 -30 -60 -35 -4 -5 -10
-7 -15 -4 -4 3 -14 -2 -21 -11 -14 -18 -70 -49 -81 -46 -5 1 -8 -2 -8 -6 0 -5
-20 -23 -45 -41 -25 -18 -45 -29 -45 -25 0 4 -6 1 -12 -7 -7 -9 -47 -43 -88
-76 -290 -233 -542 -573 -694 -934 -53 -127 -109 -297 -131 -400 -9 -41 -19
-81 -22 -89 -7 -18 -7 -18 -28 -175 -9 -64 -8 -505 0 -570 4 -27 8 -61 10 -75
1 -14 6 -33 10 -42 4 -10 5 -25 2 -33 -4 -8 -2 -17 4 -21 5 -3 9 -13 8 -22 -1
-10 1 -24 4 -32 3 -8 19 -66 36 -128 97 -356 296 -725 531 -987 72 -80 229
-232 235 -227 2 2 13 -10 26 -27 12 -17 26 -28 30 -25 5 2 16 -7 25 -21 9 -13
20 -22 25 -19 5 3 12 -2 15 -10 3 -9 9 -14 13 -11 4 2 22 -9 39 -25 18 -16 32
-26 32 -22 0 4 7 -2 15 -12 8 -11 15 -16 15 -10 0 5 7 0 15 -10 8 -11 15 -17
15 -13 0 3 21 -7 48 -23 26 -16 64 -37 84 -46 21 -9 38 -19 38 -24 0 -8 81
-46 92 -43 5 2 8 -2 8 -9 0 -6 3 -8 6 -5 4 3 26 -5 50 -19 24 -14 44 -22 44
-17 0 4 6 1 13 -7 7 -9 19 -15 27 -15 8 0 18 -3 21 -9 4 -5 22 -10 40 -11 18
-2 35 -8 37 -13 2 -6 10 -8 18 -5 8 3 14 0 14 -6 0 -6 7 -8 15 -5 8 4 15 1 15
-5 0 -6 6 -8 14 -5 8 3 17 0 21 -5 3 -6 10 -9 15 -6 5 3 11 1 15 -4 3 -6 12
-8 19 -5 8 3 17 1 20 -5 4 -6 13 -8 21 -4 8 3 15 0 15 -7 0 -7 8 -9 19 -5 11
3 22 1 25 -4 4 -6 13 -8 20 -5 8 3 17 1 20 -5 4 -6 13 -8 21 -5 8 3 20 2 27
-3 7 -4 22 -9 33 -10 33 -4 97 -12 140 -18 52 -7 508 -7 560 0 43 6 107 14
140 18 11 1 26 6 33 10 6 5 17 5 22 2 6 -4 17 -1 25 5 8 6 19 9 24 6 5 -4 13
-1 16 5 4 5 13 8 21 5 7 -3 16 -1 20 5 3 6 12 8 20 5 7 -3 16 -1 20 5 3 6 12
8 20 5 8 -3 14 -1 14 5 0 6 7 9 15 6 8 -4 17 -2 19 2 6 9 92 35 119 36 10 0
22 7 27 15 7 10 10 11 10 3 0 -8 9 -4 21 8 17 17 23 19 30 8 7 -11 9 -11 9 -1
0 7 4 11 9 7 6 -3 14 3 20 12 6 10 11 14 11 10 0 -5 20 3 44 17 24 14 46 22
50 19 3 -3 6 -1 6 6 0 7 5 9 10 6 6 -3 10 -2 10 3 0 5 24 19 53 33 28 13 76
39 105 57 28 18 52 29 52 25 0 -4 4 -3 8 3 8 12 92 70 107 74 6 2 15 10 22 19
7 9 13 12 13 7 0 -4 9 2 20 15 10 13 19 20 20 15 0 -4 9 2 20 15 10 13 19 20
20 16 0 -5 12 5 26 22 14 17 28 30 32 28 11 -3 230 220 293 299 80 98 199 274
252 374 95 175 185 404 228 574 11 44 23 88 26 96 3 8 5 22 4 32 -1 9 3 19 8
22 6 4 8 13 4 21 -3 8 -2 23 2 33 4 9 9 28 11 42 1 14 6 48 9 75 9 67 8 507 0
570 -21 156 -21 157 -28 175 -3 8 -15 58 -27 110 -78 335 -264 709 -491 986
-66 81 -286 304 -292 297 -3 -2 -16 10 -31 27 -14 17 -26 28 -26 23 -1 -4 -9
2 -20 15 -10 13 -20 22 -22 20 -5 -5 -98 65 -98 74 0 5 -4 7 -9 3 -6 -3 -14 3
-20 12 -6 10 -11 15 -11 11 0 -4 -28 11 -62 32 -35 22 -82 48 -104 59 -23 10
-45 24 -48 30 -4 6 -12 9 -17 6 -5 -4 -9 -1 -9 5 0 6 -4 8 -10 5 -5 -3 -10 -1
-10 5 0 6 -4 8 -10 5 -5 -3 -10 -1 -10 6 0 7 -3 9 -7 6 -3 -4 -21 2 -39 14
-18 11 -43 22 -56 24 -13 3 -27 11 -33 18 -5 7 -18 11 -28 9 -9 -2 -20 4 -23
12 -3 9 -10 13 -15 10 -12 -7 -119 27 -119 38 0 5 -5 6 -10 3 -6 -4 -17 -1
-25 5 -8 7 -15 9 -15 5 0 -4 -6 -2 -13 4 -8 6 -17 8 -20 5 -3 -3 -12 -2 -19 2
-16 10 -37 15 -60 15 -10 0 -20 4 -23 9 -3 5 -12 7 -19 4 -8 -3 -17 -1 -20 5
-4 6 -13 8 -21 5 -8 -3 -20 -2 -27 3 -7 4 -22 9 -33 10 -49 6 -103 13 -135 18
-47 8 -517 15 -524 8z m474 -354 c47 -5 114 -17 150 -24 36 -8 80 -17 98 -20
54 -9 241 -74 352 -124 111 -50 289 -150 320 -181 10 -10 21 -16 24 -13 3 3 8
-2 12 -11 3 -9 10 -13 15 -10 5 3 12 -2 15 -10 3 -9 10 -14 15 -11 4 3 16 -6
25 -20 9 -13 20 -23 24 -20 5 3 15 -4 23 -15 7 -11 16 -17 19 -15 3 3 17 -8
31 -25 15 -17 28 -29 31 -28 2 2 28 -22 56 -52 29 -30 70 -74 92 -97 37 -39
60 -68 98 -123 8 -12 25 -34 38 -48 42 -49 135 -205 193 -327 58 -118 136
-334 143 -392 1 -17 6 -34 9 -39 3 -5 8 -29 12 -54 4 -25 8 -47 10 -50 2 -3 6
-32 10 -65 3 -33 8 -73 10 -90 6 -41 6 -375 1 -402 -3 -12 -7 -50 -11 -85 -3
-35 -8 -70 -10 -78 -5 -20 -15 -68 -20 -104 -15 -103 -94 -322 -169 -470 -54
-105 -175 -300 -183 -292 -2 2 -6 14 -7 27 -2 13 -6 31 -8 39 -3 8 -20 64 -37
125 -37 123 -109 282 -167 367 -44 63 -145 172 -169 181 -8 4 -15 11 -15 17 0
5 -5 10 -10 10 -6 0 -27 11 -48 23 -65 41 -162 73 -252 82 -19 2 -52 6 -73 10
-34 5 -41 2 -68 -30 -17 -19 -35 -35 -39 -35 -4 0 -25 -16 -46 -35 -20 -19
-39 -33 -41 -31 -3 2 -16 -7 -30 -20 -14 -13 -28 -22 -31 -20 -2 3 -13 -4 -25
-14 -11 -11 -24 -17 -29 -14 -4 3 -8 0 -8 -6 0 -6 -4 -8 -10 -5 -5 3 -10 1
-10 -5 0 -6 -4 -8 -10 -5 -5 3 -10 2 -10 -4 0 -13 -145 -67 -250 -94 -72 -18
-113 -22 -275 -22 -162 0 -203 4 -275 22 -105 27 -250 81 -250 94 0 6 -4 7
-10 4 -5 -3 -10 -1 -10 5 0 6 -5 8 -10 5 -6 -3 -10 -1 -10 5 0 6 -4 9 -8 6 -5
-3 -18 3 -29 14 -12 10 -23 17 -25 14 -3 -2 -17 7 -31 20 -14 13 -27 22 -30
20 -2 -2 -21 12 -41 31 -21 19 -42 35 -46 35 -4 0 -22 16 -39 35 -23 26 -37
34 -53 31 -13 -3 -45 -8 -73 -10 -27 -3 -64 -7 -80 -10 -38 -6 -145 -45 -165
-60 -8 -7 -28 -18 -45 -26 -16 -8 -36 -23 -43 -32 -7 -10 -17 -18 -22 -18 -14
0 -111 -106 -154 -169 -55 -79 -120 -219 -157 -336 -17 -55 -34 -107 -37 -115
-3 -8 -6 -19 -7 -25 -1 -5 -3 -12 -4 -15 -1 -3 -4 -18 -6 -34 -2 -15 -6 -30
-8 -32 -8 -8 -129 187 -183 292 -75 148 -154 367 -169 470 -2 16 -7 40 -10 54
-10 48 -14 74 -20 133 -4 32 -8 68 -11 80 -5 28 -5 361 1 402 2 17 7 57 10 90
4 33 8 62 10 65 2 3 6 25 10 50 4 25 9 49 12 54 3 5 8 22 9 39 7 58 85 274
143 392 58 122 151 278 193 327 13 14 30 36 38 48 38 55 61 84 98 123 22 23
61 65 88 94 27 28 51 50 55 47 4 -2 19 12 34 31 14 20 30 33 35 30 4 -3 15 7
25 21 9 14 19 23 22 20 3 -3 14 5 24 17 10 12 18 18 19 13 0 -4 9 2 20 15 10
13 19 21 20 17 0 -4 11 3 24 15 37 34 232 143 347 193 109 49 287 110 342 119
18 3 62 12 99 20 37 8 98 19 135 24 98 12 384 13 483 0z"/>
<path d="M2233 3976 c-198 -38 -370 -129 -524 -278 -76 -72 -166 -192 -209
-277 -46 -91 -101 -265 -101 -321 0 -8 -4 -45 -10 -82 -7 -52 -5 -94 11 -195
10 -70 26 -149 33 -175 8 -26 12 -49 9 -52 -3 -4 -1 -6 5 -6 5 0 15 -17 21
-37 14 -46 96 -187 139 -239 47 -58 144 -156 182 -184 18 -14 39 -31 47 -38
27 -26 222 -121 280 -137 33 -9 66 -19 74 -22 66 -24 404 -24 470 0 8 3 41 13
74 22 58 16 253 111 280 137 8 7 29 24 47 38 38 28 134 126 182 184 53 63 130
206 160 294 41 122 69 326 58 410 -6 37 -10 74 -10 82 0 30 -31 149 -54 212
-31 80 -59 136 -106 207 -53 82 -59 88 -144 173 -135 133 -290 223 -465 269
-101 27 -345 35 -449 15z"/>
</g>
</svg>
